<svg xmlns="http://www.w3.org/2000/svg" width="1200" height="630" viewBox="0 0 1200 630">
  <defs>
    <linearGradient id="bg" x1="0" y1="0" x2="1" y2="1">
      <stop offset="0%" stop-color="#1a1a2e"/>
      <stop offset="100%" stop-color="#16213e"/>
    </linearGradient>
    <linearGradient id="accent" x1="0" y1="0" x2="1" y2="1">
      <stop offset="0%" stop-color="#4fc3f7"/>
      <stop offset="100%" stop-color="#29b6f6"/>
    </linearGradient>
  </defs>
  <rect width="1200" height="630" fill="url(#bg)"/>
  <!-- Folder icon -->
  <g transform="translate(180,315)">
    <path d="M-80,-35 L-55,-35 L-35,-60 L35,-60 L35,-35 L80,-35 L80,60 L-80,60 Z"
          fill="none" stroke="url(#accent)" stroke-width="6" stroke-linejoin="round"/>
    <path d="M-35,-35 L-35,-60 L35,-60 L35,-35"
          fill="url(#accent)" opacity="0.3" stroke="none"/>
    <rect x="-50" y="-10" width="30" height="35" rx="3" fill="#ffffff" opacity="0.9"/>
    <rect x="-44" y="-2" width="18" height="2" rx="1" fill="#4fc3f7" opacity="0.6"/>
    <rect x="-44" y="4" width="18" height="2" rx="1" fill="#4fc3f7" opacity="0.6"/>
    <rect x="-44" y="10" width="12" height="2" rx="1" fill="#4fc3f7" opacity="0.6"/>
    <rect x="-5" y="-10" width="30" height="35" rx="3" fill="#ffffff" opacity="0.9"/>
    <rect x="1" y="-2" width="18" height="2" rx="1" fill="#4fc3f7" opacity="0.6"/>
    <rect x="1" y="4" width="18" height="2" rx="1" fill="#4fc3f7" opacity="0.6"/>
    <rect x="1" y="10" width="12" height="2" rx="1" fill="#4fc3f7" opacity="0.6"/>
    <rect x="40" y="-10" width="30" height="35" rx="3" fill="#ffffff" opacity="0.9"/>
    <rect x="46" y="-2" width="18" height="2" rx="1" fill="#4fc3f7" opacity="0.6"/>
    <rect x="46" y="4" width="18" height="2" rx="1" fill="#4fc3f7" opacity="0.6"/>
    <rect x="46" y="10" width="12" height="2" rx="1" fill="#4fc3f7" opacity="0.6"/>
  </g>
  <!-- Title -->
  <text x="500" y="280" font-family="system-ui, -apple-system, sans-serif" font-size="72"
        font-weight="700" fill="#ffffff">File Browser</text>
  <text x="500" y="360" font-family="system-ui, -apple-system, sans-serif" font-size="36"
        fill="#4fc3f7" opacity="0.9">Deploy on Railway in Minutes</text>
  <text x="500" y="410" font-family="system-ui, -apple-system, sans-serif" font-size="24"
        fill="#ffffff" opacity="0.6">Single-binary file manager · Zero dependencies · Apache 2.0</text>
  <!-- Railway deploy pill -->
  <rect x="500" y="460" width="280" height="50" rx="25" fill="none" stroke="#4fc3f7" stroke-width="2"/>
  <text x="640" y="492" font-family="system-ui, -apple-system, sans-serif" font-size="22"
        fill="#4fc3f7" text-anchor="middle" font-weight="600">Railway Template</text>
</svg>
