<svg xmlns="http://www.w3.org/2000/svg" width="800" height="800" viewBox="0 0 800 800" fill="none">
  <defs>
    <linearGradient id="bg" x1="0" y1="0" x2="1" y2="1"><stop offset="0%" stop-color="#16213E"/><stop offset="100%" stop-color="#0A0F1C"/></linearGradient>
    <linearGradient id="folder" x1="0" y1="0" x2="0" y2="1"><stop offset="0%" stop-color="#29B6F6"/><stop offset="100%" stop-color="#0288D1"/></linearGradient>
    <linearGradient id="tab" x1="0" y1="0" x2="1" y2="0"><stop offset="0%" stop-color="#4FC3F7"/><stop offset="100%" stop-color="#29B6F6"/></linearGradient>
  </defs>
  <rect width="800" height="800" rx="120" fill="url(#bg)"/>
  <circle cx="400" cy="400" r="190" stroke="#29B6F6" stroke-width="1.5" opacity="0.12"/>
  <!-- Folder tab -->
  <path d="M230 260 L330 260 L350 200 L500 200 L500 540 L230 540 Z" fill="url(#folder)" opacity="0.85"/>
  <!-- Tab top -->
  <path d="M350 200 L330 260 L230 260 L230 220 Q230 200 250 200 Z" fill="url(#tab)" opacity="0.75"/>
  <!-- Inner documents -->
  <rect x="270" y="320" rx="4" width="100" height="14" fill="#E1F5FE" opacity="0.25"/>
  <rect x="270" y="350" rx="4" width="160" height="14" fill="#E1F5FE" opacity="0.18"/>
  <rect x="270" y="380" rx="4" width="120" height="14" fill="#E1F5FE" opacity="0.22"/>
  <rect x="270" y="410" rx="4" width="180" height="14" fill="#E1F5FE" opacity="0.15"/>
</svg>